<svg xmlns="http://www.w3.org/2000/svg" width="1000" height="625" viewBox="0 0 1000 625"><rect width="100%" height="100%" fill="white"/><g font-family="sans-serif" font-size="12" fill="#193747"><text x="16" y="24" font-size="13">第四轮 · 释义顺序与机制（18 条件） / hpm-Q03-D06 / 36 层等权平均</text><text x="16" y="47" font-size="10">答案前；32 头平均；每可见 token 平均。</text><text x="16" y="70" font-size="10">显示范围 0…1.00000%；超过范围的图形饱和，数值保留。</text><text x="16" y="93" font-size="10">片段：parts；范围：references；对齐：material；质量不按筛选范围重新归一化</text><text x="16" y="139">嘿嘿·词形</text><rect x="330" y="125" width="520" height="20" fill="#f2f6f7"/><rect x="330" y="125" width="44.140926325489644" height="20" fill="#087e88"><title>0.0008488639677978778</title></rect><text x="980" text-anchor="end" y="139">0.08489%</text><text x="16" y="169">fw·词形</text><rect x="330" y="155" width="520" height="20" fill="#f2f6f7"/><rect x="330" y="155" width="21.56675430433726" height="20" fill="#087e88"><title>0.0004147452750834088</title></rect><text x="980" text-anchor="end" y="169">0.04147%</text><text x="16" y="199">仙女·词形</text><rect x="330" y="185" width="520" height="20" fill="#f2f6f7"/><rect x="330" y="185" width="17.55753306467044" height="20" fill="#087e88"><title>0.0003376448666282777</title></rect><text x="980" text-anchor="end" y="199">0.03376%</text><text x="16" y="229">tm·词形</text><rect x="330" y="215" width="520" height="20" fill="#f2f6f7"/><rect x="330" y="215" width="16.450879115124827" height="20" fill="#087e88"><title>0.0003163630599062467</title></rect><text x="980" text-anchor="end" y="229">0.03164%</text><text x="16" y="259">剑人·词形</text><rect x="330" y="245" width="520" height="20" fill="#f2f6f7"/><rect x="330" y="245" width="11.490885655221117" height="20" fill="#087e88"><title>0.00022097857029271378</title></rect><text x="980" text-anchor="end" y="259">0.02210%</text><text x="16" y="289">嘿嘿·连接／边界</text><rect x="330" y="275" width="520" height="20" fill="#f2f6f7"/><rect x="330" y="275" width="10.077754176800932" height="20" fill="#087e88"><title>0.0001938029649384795</title></rect><text x="980" text-anchor="end" y="289">0.01938%</text><text x="16" y="319">鸡·词形</text><rect x="330" y="305" width="520" height="20" fill="#f2f6f7"/><rect x="330" y="305" width="8.521337143235739" height="20" fill="#087e88"><title>0.00016387186813914882</title></rect><text x="980" text-anchor="end" y="319">0.01639%</text><text x="16" y="349">tm·释义</text><rect x="330" y="335" width="520" height="20" fill="#f2f6f7"/><rect x="330" y="335" width="7.193266177483358" height="20" fill="#087e88"><title>0.00013833204187467996</title></rect><text x="980" text-anchor="end" y="349">0.01383%</text><text x="16" y="379">剑人·释义</text><rect x="330" y="365" width="520" height="20" fill="#f2f6f7"/><rect x="330" y="365" width="6.54433177555856" height="20" fill="#087e88"><title>0.00012585253414535693</title></rect><text x="980" text-anchor="end" y="379">0.01259%</text><text x="16" y="409">嘿嘿·普通义</text><rect x="330" y="395" width="520" height="20" fill="#f2f6f7"/><rect x="330" y="395" width="5.514733551147635" height="20" fill="#087e88"><title>0.00010605256829130068</title></rect><text x="980" text-anchor="end" y="409">0.01061%</text><text x="16" y="439">嘿嘿·释义</text><rect x="330" y="425" width="520" height="20" fill="#f2f6f7"/><rect x="330" y="425" width="5.366415401426425" height="20" fill="#087e88"><title>0.00010320029618127742</title></rect><text x="980" text-anchor="end" y="439">0.01032%</text><text x="16" y="469">fw·释义</text><rect x="330" y="455" width="520" height="20" fill="#f2f6f7"/><rect x="330" y="455" width="4.434489563713516" height="20" fill="#087e88"><title>0.00008527864545602915</title></rect><text x="980" text-anchor="end" y="469">0.00853%</text><text x="16" y="499">嘿嘿·原释义</text><rect x="330" y="485" width="520" height="20" fill="#f2f6f7"/><rect x="330" y="485" width="3.8195274340649847" height="20" fill="#087e88"><title>0.00007345245065509586</title></rect><text x="980" text-anchor="end" y="499">0.00735%</text><text x="16" y="529">鸡·释义</text><rect x="330" y="515" width="520" height="20" fill="#f2f6f7"/><rect x="330" y="515" width="3.4333549536276093" height="20" fill="#087e88"><title>0.00006602605680053095</title></rect><text x="980" text-anchor="end" y="529">0.00660%</text><text x="16" y="559">仙女·释义</text><rect x="330" y="545" width="520" height="20" fill="#f2f6f7"/><rect x="330" y="545" width="3.1050614985299814" height="20" fill="#087e88"><title>0.000059712721125576564</title></rect><text x="980" text-anchor="end" y="559">0.00597%</text></g></svg>